<svg id="Capa_3_copia_3" data-name="Capa 3 copia 3" xmlns="http://www.w3.org/2000/svg" xmlns:xlink="http://www.w3.org/1999/xlink" viewBox="0 0 2000 2000"><defs><style>.cls-1{fill:url(#Degradado_sin_nombre_93);}.cls-2{fill:url(#Degradado_sin_nombre_86);}.cls-3{fill:url(#Degradado_sin_nombre_93-2);}.cls-4{fill:url(#Degradado_sin_nombre_86-2);}.cls-5{fill:#636569;}.cls-6{fill:url(#Degradado_sin_nombre_80);}.cls-7{fill:url(#Degradado_sin_nombre_80-2);}.cls-8{fill:#e9eae8;}.cls-9{fill:#898a8d;}</style><linearGradient id="Degradado_sin_nombre_93" x1="764.72" y1="1484.16" x2="764.72" y2="861.03" gradientUnits="userSpaceOnUse"><stop offset="0" stop-color="#636569"/><stop offset="1" stop-color="#898a8d"/></linearGradient><linearGradient id="Degradado_sin_nombre_86" x1="1540.9" y1="1414.84" x2="1106.39" y2="1579.77" gradientUnits="userSpaceOnUse"><stop offset="0" stop-color="#76777a"/><stop offset="1" stop-color="#54565a"/></linearGradient><linearGradient id="Degradado_sin_nombre_93-2" x1="840.85" y1="672.91" x2="840.85" y2="1298.71" xlink:href="#Degradado_sin_nombre_93"/><linearGradient id="Degradado_sin_nombre_86-2" x1="1297.1" y1="655.67" x2="1034.63" y2="545.16" xlink:href="#Degradado_sin_nombre_86"/><linearGradient id="Degradado_sin_nombre_80" x1="732.47" y1="632.18" x2="1062.33" y2="478.13" gradientUnits="userSpaceOnUse"><stop offset="0" stop-color="#898a8d"/><stop offset="1" stop-color="#a7a8a9"/></linearGradient><linearGradient id="Degradado_sin_nombre_80-2" x1="1051.39" y1="1392.37" x2="1292.51" y2="1280.6" xlink:href="#Degradado_sin_nombre_80"/></defs><title>CN Gray Logo</title><polygon class="cls-1" points="984 1558.41 984 1678.62 697.71 1564.11 665.71 1551.31 545.45 1503.2 545.45 535.2 608.89 568.79 640.26 585.4 665.71 598.88 665.71 1431.16 674.7 1434.76 697.71 1443.95 818.18 1492.13 984 1558.41"/><polygon class="cls-2" points="1454.55 1383.09 1454.55 1503.2 1246.33 1586.48 1016 1678.62 1016 1558.41 1246.33 1466.34 1454.55 1383.09"/><polygon class="cls-3" points="984 480.3 984 600.58 838.88 658.6 818.18 666.88 818.18 1326.77 804.45 1334.04 706.62 1385.86 697.71 1390.57 697.71 594.75 709.46 590.05 818.18 546.59 984 480.3"/><polygon class="cls-4" points="1309.3 597.55 1309.3 717.85 1195.55 672.37 1161.12 658.6 1016 600.58 1016 480.3 1290.54 590.05 1309.3 597.55"/><polygon points="1325.3 603.64 1325.3 603.96 1324.97 603.83 1325.3 603.64"/><polygon points="1325.3 603.64 1325.3 603.96 1324.97 603.83 1325.3 603.64"/><polygon class="cls-5" points="1454.55 535.2 1454.55 655.63 1341.3 715.61 1341.3 595.17 1359.74 585.4 1391.11 568.79 1454.55 535.2"/><polygon class="cls-6" points="1454.55 503.19 1356.7 555.01 1341.3 563.17 1325.3 571.64 1309.3 565.25 1000 441.58 818.18 514.27 697.71 562.45 674.7 571.64 665.71 566.88 643.3 555.01 545.47 503.2 545.45 503.19 665.71 455.1 697.71 442.3 1000 321.38 1309.3 445.1 1341.3 457.89 1454.55 503.19"/><polygon class="cls-7" points="1419.79 1364.67 1246.33 1434.03 1000 1532.51 818.18 1459.82 709.46 1416.35 741.04 1399.63 818.18 1358.77 838.88 1347.81 1000 1412.29 1246.33 1313.72 1290.35 1296.13 1290.36 1296.13 1388.18 1347.93 1419.79 1364.67"/><polygon class="cls-8" points="1454.55 503.19 1000 321.38 545.45 503.19 567.81 515.04 1000 347.83 1432.19 515.04 1454.55 503.19"/><polygon class="cls-8" points="818.18 1358.77 1000 1433.57 1288.83 1317.86 1396.21 1374.1 1419.79 1364.67 1290.36 1296.13 1000 1412.29 853.29 1353.57 838.88 1347.81 818.18 1358.77"/><polygon class="cls-8" points="839.48 1359.43 709.46 1416.35 838.88 1347.81 839.48 1359.43"/><polygon class="cls-8" points="665.71 598.88 665.71 1431.16 984 1558.41 984 1568.48 654.03 1438.09 654.03 592.7 665.71 598.88"/><path class="cls-9" d="M551.45,545.16l54.63,28.94,31.37,16.61,22.26,11.79v832.73l3.77,1.51,9,3.59,23,9.2L816,1497.7l162,64.78v107.27L699.94,1558.53l-32-12.8-116.49-46.59v-954m-6-10v968l120.26,48.09,32,12.8L984,1678.61v-120.2l-165.82-66.29L697.71,1444l-23-9.21-9-3.59V598.89l-25.45-13.48L608.89,568.8l-63.44-33.61Z"/><path class="cls-9" d="M1448.55,1392v107.19l-204.45,81.77L1022,1669.75V1562.48l226.56-90.57,200-80m6-8.87-208.22,83.25L1016,1558.42v120.19l230.33-92.13,208.22-83.27V1383.08Z"/><path class="cls-9" d="M978,489.16V596.51L836.65,653,816,661.3l-3.77,1.51v660.34l-10.54,5.58-97.82,51.82-.11.06V598.82l8-3.19,108.72-43.47,157.59-63m6-8.86L818.18,546.59,709.46,590.05l-11.75,4.71v795.8l8.91-4.71L804.45,1334l13.73-7.26V666.88l20.7-8.28,145.12-58V480.3Z"/><path class="cls-9" d="M1022,489.16l266.31,106.47,15,6V709l-105.52-42.19L1163.35,653,1022,596.51V489.16m-6-8.86V600.58l145.12,58,34.43,13.77,113.75,45.48V597.55l-18.76-7.5L1016,480.3Z"/><polygon class="cls-9" points="1325.3 603.64 1324.97 603.83 1325.3 603.96 1325.3 603.64 1325.3 603.64"/><polygon class="cls-9" points="1325.3 603.64 1324.97 603.83 1325.3 603.96 1325.3 603.64 1325.3 603.64"/><path class="cls-9" d="M1448.55,545.16V652L1347.3,705.64V598.79l15.25-8.08,31.37-16.61,54.63-28.94m6-10-63.44,33.61-31.37,16.61-18.44,9.76V715.61l113.25-60V535.19Z"/><path class="cls-9" d="M1000,327.85l307.07,122.82,32,12.8L1440.29,504l-86.4,45.75-15.4,8.16L1325,565l-13.42-5.37L1002.23,436l-2.23-.89-2.23.89L816,508.7,695.48,556.87,675.05,565l-6.53-3.46-22.41-11.87L559.71,504l108.23-43.29,32-12.8,300.06-120m0-6.46L697.71,442.3l-32,12.8L545.45,503.19l0,0L643.3,555l22.41,11.87,9,4.76,23-9.21,120.47-48.16L1000,441.59l309.3,123.66,16,6.4,16-8.48,15.4-8.15,97.85-51.83L1341.3,457.9l-32-12.8L1000,321.39Z"/><path class="cls-9" d="M1290,1302.73l95.37,50.51,20.16,10.67-161.43,64.54L1000,1526l-179.59-71.8-96.69-38.66,20.13-10.65L821,1364.07l18.24-9.66,158.54,63.45,2.23.89,2.23-.89,246.33-98.56,41.44-16.57m.36-6.61h0l-44,17.61L1000,1412.28,838.88,1347.8l-20.7,11L741,1399.62l-31.58,16.73,108.72,43.46L1000,1532.5,1246.33,1434l173.46-69.36-31.61-16.73-97.82-51.82Z"/></svg>