<?xml version="1.0"?><svg xmlns="http://www.w3.org/2000/svg" viewBox="0 0 2000 2000"><polygon points="984 1558.41 984 1678.62 697.71 1564.11 665.71 1551.31 545.45 1503.2 545.45 535.2 608.89 568.79 640.26 585.4 665.71 598.88 665.71 1431.16 674.7 1434.76 697.71 1443.95 818.18 1492.13 984 1558.41" fill="#949494" /><polygon points="1454.55 1383.09 1454.55 1503.2 1246.33 1586.48 1016 1678.62 1016 1558.41 1246.33 1466.34 1454.55 1383.09" fill="#606060" /><polygon points="1454.55 503.19 1356.7 555.01 1341.3 563.17 1325.3 571.64 1309.3 565.25 1000 441.58 818.18 514.27 697.71 562.45 674.7 571.64 665.71 566.88 643.3 555.01 545.47 503.2 545.45 503.19 665.71 455.1 697.71 442.3 1000 321.38 1309.3 445.1 1341.3 457.89 1454.55 503.19" fill="#BBB" /><polygon points="984 480.3 984 600.58 838.88 658.6 818.18 666.88 818.18 1326.77 804.45 1334.04 706.62 1385.86 697.71 1390.57 697.71 594.75 709.46 590.05 818.18 546.59 984 480.3" fill="#949494" /><polygon points="1454.55 535.2 1454.55 655.63 1341.3 715.61 1341.3 595.17 1359.74 585.4 1391.11 568.79 1454.55 535.2" fill="#606060" /><polygon points="1419.79 1364.67 1246.33 1434.03 1000 1532.51 818.18 1459.82 709.46 1416.35 741.04 1399.63 818.18 1358.77 838.88 1347.81 1000 1412.29 1246.33 1313.72 1290.35 1296.13 1290.36 1296.13 1388.18 1347.93 1419.79 1364.67" fill="#BBB" /><polygon points="1309.3 597.55 1309.3 717.85 1195.55 672.37 1161.12 658.6 1016 600.58 1016 480.3 1290.54 590.05 1309.3 597.55" fill="#777" /></svg>