<?xml version="1.0" encoding="utf-8"?>
<!-- Generator: Adobe Illustrator 22.0.0, SVG Export Plug-In . SVG Version: 6.00 Build 0)  -->
<svg version="1.1" xmlns="http://www.w3.org/2000/svg" xmlns:xlink="http://www.w3.org/1999/xlink" x="0px" y="0px"
	 viewBox="0 0 840.9 981" style="enable-background:new 0 0 840.9 981;" xml:space="preserve">
<style type="text/css">
	.st0{fill:#222222;}
	.st1{fill:#A6A6A6;}
	.st2{fill:#FFFFFF;}
	.st3{enable-background:new    ;}
</style>
<g id="Layer_3">
	<g id="Capa_2">
		<path class="st0" d="M-378,503V-28h800h800v531v531H422h-800V503z"/>
	</g>
</g>
<g id="Layer_1">
	<g id="Capa_1_1_">
		<path class="st1" d="M435.2,651.5l198.2-90.4l0.2,49l-198.2,98.6L435.2,651.5z"/>
		<path class="st1" d="M433.7,162.5c0,0,0.1-57.2,0.2-57.2c0.1,0,137.5,62.8,137.5,62.8l-0.2,53.1L433.7,162.5z"/>
		<path class="st1" d="M581.4,168.2L634,141l0.7,55.1l-53.3,25.3V168.2z"/>
		<path class="st1" d="M217.3,128.7l211.1-97.1L634,131.7l-57.6,28.9L428.2,91.8c0,0-35.7,16.7-78.2,37.2
			c-42.5,20.5-79.7,37.2-79.7,37.2L217.3,128.7z"/>
		<path class="st2" d="M209.7,609.2l-0.5-471.6l54.1,35.7v202.9v203L420,651.7l0.7,57.1L209.7,609.2z"/>
		<path class="st2" d="M276.3,575.4l66.6-26.5l84.9,39.2l148.8-64.9l48.2,29.3l-197,89.8L276.3,575.4z"/>
		<path class="st2" d="M276.3,173.2c0,0,145.2-67.6,145.4-67.6s-0.2,57-0.2,57l-80.9,37.3v339.6l-63.8,24.6L276.3,173.2z"/>
	</g>
	<g class="st3">
		<path class="st2" d="M120.9,831.1c-5.7-2.6-13.9-3.9-24.5-3.9c-10.3,0-17.3,1.7-21.3,5.2c-3.7,3.4-5.6,17.6-5.6,42.5
			c0,24.9,2,39,5.9,42.3c4.1,3.3,11.2,4.9,21.3,4.9c10,0,18.1-1.5,24.2-4.4V944c-7.6,2.6-18.6,3.9-33,3.9
			c-14.2,0.3-26.2-4-36.2-12.9c-9.9-8.8-14.9-29-14.9-60.6c0-31.6,5-51.7,14.9-60.3c9.9-8.4,22-12.6,36.2-12.6
			c14.2,0,25.2,1.3,33,3.9V831.1z"/>
		<path class="st2" d="M198.7,801.4c20.9-0.2,35.9,3.9,44.8,12.1c8.7,8.1,13.1,28.2,13.1,60.3c0,32.1-4.4,52.5-13.1,61.1
			c-8.9,8.6-23.7,12.9-44.2,12.9c-19.6,0.2-34.3-4.1-44.2-12.9c-9.8-8.8-14.7-29-14.7-60.6c0-31.6,4.9-51.7,14.7-60.3
			C165,805.6,179.5,801.4,198.7,801.4z M198.7,827.2c-9.5,0-16.2,1.7-20,5.2c-3.7,3.4-5.5,17.6-5.5,42.5c0,24.9,1.9,39,5.8,42.3
			c4.1,3.3,10.7,4.9,19.7,4.9c9.7,0,16.3-1.6,19.7-4.9c3.7-3.4,5.5-17.5,5.5-42.3c0-25.1-1.7-39.3-5.2-42.5
			C215.1,828.9,208.4,827.2,198.7,827.2z"/>
		<path class="st2" d="M315.2,880.6l-9.5-25.5l1.3,26.8v65h-29.8V802.2h36l29.4,63.9l8.8,24.2l-1.3-26.8v-61.3h29.4v144.6h-34
			L315.2,880.6z"/>
		<path class="st2" d="M482.6,831.1c-5.7-2.6-13.9-3.9-24.5-3.9c-10.3,0-17.3,1.7-21.3,5.2c-3.7,3.4-5.6,17.6-5.6,42.5
			c0,24.9,2,39,5.9,42.3c4.1,3.3,11.2,4.9,21.3,4.9c10,0,18.1-1.5,24.2-4.4V944c-7.6,2.6-18.6,3.9-33,3.9
			c-14.2,0.3-26.3-4-36.2-12.9c-9.9-8.8-14.9-29-14.9-60.6c0-31.6,5-51.7,14.9-60.3c9.9-8.4,22-12.6,36.2-12.6
			c14.2,0,25.2,1.3,33,3.9V831.1z"/>
		<path class="st2" d="M585.7,802.2V828h-49.4v31.4H567v25.8h-30.7V921h49.4v25.8h-82.1V802.2H585.7z"/>
		<path class="st2" d="M672.7,802.2l38.3,144.6h-34.7l-5.9-27.3h-35l-5.9,27.3h-34.7l38.3-144.6H672.7z M658,863.3l-5.2-25.3
			l-4.9,25.8l-6.5,31.4h23.2L658,863.3z"/>
		<path class="st2" d="M723.7,802.2h32.7V921h53.6v25.8h-86.4V802.2z"/>
	</g>
	<text transform="matrix(1.2691 0 0 1 -1457.104 561.1047)" class="st2" style="font-family:'Pakenham'; font-size:257.7453px;">CONCEAL</text>
</g>
</svg>
