<svg id="Шар_1" data-name="Шар 1" xmlns="http://www.w3.org/2000/svg" viewBox="0 0 14222.78 2333.96"><defs><style>.cls-1{fill:#fff;}</style></defs><title>Logo_W</title><path class="cls-1" d="M6758.75,3205.06h-727.5V1411.54H5006.81V871.12H7750.53v540.42H6758.75Z" transform="translate(-1333.45 -871.12)"/><path class="cls-1" d="M11303,2661.67v543.39H8743.37V871.12H11303v540.42H9470.87v392h1719.28v472.14H9470.87v386Z" transform="translate(-1333.45 -871.12)"/><path class="cls-1" d="M13255,3205.06h-979.9l1131.32-1152.13L12316.61,871.12h947.24l644.35,721.55,641.4-721.55h956.14L14404.1,2052.93l1152.13,1152.13h-976.95l-662.18-700.77Z" transform="translate(-1333.45 -871.12)"/><path class="cls-1" d="M4063.42,871.2v482.08h-1858v24.22c-17.12,1.06-33.18,2.37-48.46,4.35a306.08,306.08,0,0,0-89.14,25.28,157,157,0,0,0-66.77,57.81c-16.72,25.68-25.15,59.52-25.15,101.13q0,112.59,80.2,148.4c38.71,17.38,88.62,28.31,149.32,32.92v37.14h1111c1.84,0,3.55.26,5.4.26h.26c43.45,1.84,82.69,3.55,117.59,5.4,63.47,3,115.88,6.32,157.49,10.4q232.67,12.65,365.67,127.86c-33.05,34.89-44,85.59-5.53,137.08,14,19.09,27,36.08,38.71,52.67-43.06,140.37-17.64,330.12-51.75,441.91-16.33,54,2.11,97.32,35.42,124.57-37.26,98.1-63.6,192.12-40.82,299.83l-179.34,179.35q-133.53,41.28-316.82,41.22H1334.5V2700.22H3134c12.51,0,24.76-.26,36.74-.53,10.14-.26,20-.79,29.76-1.45,16.59-.78,32.39-2.1,47.67-3.81,25.94-3.16,50.43-8.43,73.61-16.59a217,217,0,0,0,22.91-8.7c29.76-13,53.46-32.12,71.24-58.07,17.9-25.67,26.73-59.38,26.73-100.86,0-47.67-12.38-85.59-37.14-114.3-21.86-25.54-49.9-44.9-83.74-57.94-4.09-1.45-8.43-3-12.78-4.48a506,506,0,0,0-108.5-22.25V2267H2039c-6.32-.27-12.38-.53-18.83-1.06l-17.52-.79c-61.36-2.76-113.9-6.32-157.48-10.4q-297.47-16-442.58-180.14a96.42,96.42,0,0,0,9.62-15.53c28.57-54.26,46.61-114.83,55-175.4,12-87.44-50.7-176.32-35.42-254,14.22-73.08,72.55-108.24,64-195-9.74-96.65-83.35-166.18-100.47-258.61-3-15.94-8-29.37-14.62-40.83l220-220q114.56-44.05,274.29-44Z" transform="translate(-1333.45 -871.12)"/><path class="cls-1" d="M2020.16,871.2v545.54c-93.49,5.4-129.05,97.32-106.93,169-34.1,72.55-.79,179.22,99.82,185.4a60.79,60.79,0,0,0,7.11.53V2267H1333.45V1182.22l47.14-47.14a.13.13,0,0,0,.13.13l220-220c-.13,0-.26.13-.4.13l44.12-44.11Z" transform="translate(-1333.45 -871.12)"/><rect class="cls-1" x="467.95" y="495.97" width="403.97" height="403.98"/><path class="cls-1" d="M4041,1784.79V2884.7l-101.79,101.79-.4-2-179.34,179.35c1.18-.39,2.23-.66,3.42-1.05l-42.14,42.27h-399V1784.79Z" transform="translate(-1333.45 -871.12)"/><path class="cls-1" d="M3200.52,2297.79H3472.8v420H3170.71v-18.08q15.28-.37,29.81-1.53v-400.4Z" transform="translate(-1333.45 -871.12)"/><path class="cls-1" d="M3170.72,2699.72q15.27-.39,29.8-1.53v40h-1866v-37.95H3134C3146.52,2700.23,3158.74,2700,3170.72,2699.72Z" transform="translate(-1333.45 -871.12)"/><rect class="cls-1" x="871.92" y="433.18" width="1858.1" height="107.19"/><path class="cls-1" d="M3759.51,3163.86c1.18-.39,2.23-.66,3.42-1.05l-42.14,42.27h-2.5Z" transform="translate(-1333.45 -871.12)"/><path class="cls-1" d="M4041,2882.33v2.37l-101.79,101.79-.4-2Z" transform="translate(-1333.45 -871.12)"/><rect class="cls-1" x="3547.86" y="2786.83" width="452.64" height="302.15" transform="translate(-2305.44 2658.12) rotate(-45)"/></svg>